<svg width="83" height="79" viewBox="0 0 83 79" fill="none" xmlns="http://www.w3.org/2000/svg">
<path d="M82.4684 52.0095L61.8113 59.6848L59.2528 78.0204L45.2761 65.844L24.998 73.4246L6.99414 24.9088L64.4645 3.44629L82.4684 52.0095Z" fill="#5152FB"/>
<path d="M75.9782 49.0255L55.3211 56.7009L52.7626 75.0365L38.7859 62.8601L18.5078 70.4407L0.503906 21.9249L57.9743 0.509766L75.9782 49.0255Z" fill="white"/>
<path d="M52.7622 75.5098C52.6674 75.5098 52.5253 75.4624 52.4305 75.415L38.6433 63.4282L18.6495 70.8667C18.5547 70.9141 18.4126 70.9141 18.2705 70.8667C18.1757 70.8193 18.081 70.7245 18.0336 70.5824L0.029681 22.0666C-0.0650764 21.8297 0.0770596 21.5455 0.313953 21.4507L57.7843 0.035534C57.8791 -0.0118447 58.0212 -0.0118447 58.1633 0.035534C58.2581 0.0829127 58.3528 0.177669 58.4002 0.319805L76.4041 48.8356C76.4989 49.0725 76.3568 49.3568 76.1199 49.4515L55.6996 57.0321L53.1886 75.0834C53.1412 75.2729 53.0464 75.415 52.9043 75.4624C52.8569 75.5098 52.8095 75.5098 52.7622 75.5098ZM38.7854 62.3859C38.8802 62.3859 39.0223 62.4333 39.1171 62.4807L52.4305 74.0884L54.8942 56.6057C54.9416 56.4162 55.0363 56.274 55.1785 56.2267L75.4092 48.6934L57.6895 1.07786L1.11939 22.2088L18.7916 69.8243L38.6433 62.4333C38.6433 62.4333 38.6907 62.3859 38.7854 62.3859Z" fill="#1A1C31"/>
<path d="M41.4863 20.2183C37.9803 21.5449 35.7535 24.7667 35.564 28.2727C33.1477 25.7617 29.3574 24.7667 25.8514 26.0459C21.1609 27.7989 18.7446 33.058 20.4976 37.7485C21.6347 40.8281 23.4824 42.2968 27.0358 44.192L44.7081 52.957L52.3834 34.7636C53.8522 31.0207 54.2786 28.6991 53.1415 25.6195C51.3885 20.8343 46.1768 18.4653 41.4863 20.2183Z" fill="#FA4769"/>
</svg>
