<svg width="173" height="173" viewBox="0 0 173 173" fill="none" xmlns="http://www.w3.org/2000/svg">
<path d="M107.982 76.4795C107.622 76.1202 107.323 75.7011 107.053 75.252C105.676 72.6772 106.633 69.4444 109.207 68.068L135.127 54.1248C137.701 52.7485 140.935 53.7073 142.312 56.2821C143.69 58.8569 142.733 62.0896 140.159 63.466L114.238 77.4092C112.113 78.5162 109.568 78.0665 107.982 76.4795Z" fill="#8D95FF"/>
<path d="M31.3565 117.682C30.9972 117.322 30.6977 116.903 30.4282 116.454C29.0505 113.879 30.0076 110.647 32.5817 109.27L58.5021 95.327C61.0762 93.9506 64.3095 94.9094 65.6872 97.4842C67.0649 100.059 66.1078 103.292 63.5337 104.668L37.6132 118.611C35.4881 119.718 32.9435 119.269 31.3565 117.682Z" fill="#8D95FF"/>
<path d="M110.204 98.3962C108.856 97.0487 108.287 95.0429 108.885 93.1272C109.723 90.3135 112.686 88.7277 115.47 89.5966L143.671 98.1054C146.486 98.9444 148.073 101.908 147.206 104.692C146.338 107.476 143.405 109.092 140.621 108.223L112.419 99.7139C111.551 99.4442 110.803 98.995 110.204 98.3962Z" fill="#8D95FF"/>
<path d="M26.8289 73.3171C25.4814 71.9696 24.9121 69.9638 25.5103 68.0481C26.3478 65.2344 29.311 63.6486 32.0952 64.5174L60.2965 73.0264C63.1107 73.8653 64.698 76.8293 63.8306 79.613C62.9931 82.4268 60.03 84.0126 57.2457 83.1438L29.0444 74.6348C28.2062 74.3951 27.4277 73.9159 26.8289 73.3171Z" fill="#8D95FF"/>
<path d="M110.222 141.382C109.862 141.022 109.563 140.603 109.293 140.154L95.3366 114.226C93.9589 111.652 94.916 108.419 97.4901 107.042C100.064 105.666 103.297 106.625 104.675 109.2L118.632 135.127C120.009 137.702 119.052 140.935 116.478 142.311C114.383 143.448 111.838 142.999 110.222 141.382Z" fill="#8D95FF"/>
<path d="M69.0066 64.7371C68.6473 64.3778 68.3478 63.9586 68.0783 63.5095L54.1217 37.5819C52.744 35.0071 53.7011 31.7743 56.2752 30.3979C58.8493 29.0216 62.0826 29.9803 63.4603 32.5551L77.4168 58.4828C78.7945 61.0576 77.8374 64.2903 75.2633 65.6667C73.1382 66.7738 70.5936 66.3241 69.0066 64.7371Z" fill="#8D95FF"/>
<path d="M65.8525 145.858C64.5051 144.511 63.9358 142.505 64.534 140.589L73.0284 112.392C73.8659 109.579 76.829 107.993 79.6132 108.862C82.4274 109.701 84.0148 112.665 83.1474 115.448L74.653 143.645C73.8155 146.459 70.8524 148.045 68.0681 147.176C67.2299 146.936 66.4514 146.457 65.8525 145.858Z" fill="#8D95FF"/>
<path d="M90.9189 62.5252C89.5715 61.1778 89.0022 59.1719 89.6004 57.2562L98.0948 29.0593C98.9323 26.2456 101.895 24.6598 104.68 25.5287C107.494 26.3676 109.081 29.3316 108.214 32.1154L99.7194 60.3123C98.8819 63.126 95.9188 64.7118 93.1345 63.843C92.2663 63.5733 91.5178 63.1241 90.9189 62.5252Z" fill="#8D95FF"/>
</svg>
